:FULLY-SPECIFIED
:FORCE-ALL-JOINTS-BE-3DOF
:DEGREES
340
root 8.17334 16.0429 -20.5092 13.5473 31.189 6.33565
lfemur -12.8169 22.7508 -13.5323
ltibia 47.89 -0 0
lfoot 2.66052 28.6973 -0.168026
ltoes -36.1293 0 0
rfemur -54.8775 -15.3284 7.31814
rtibia 63.6582 -0 0
rfoot 4.63757 -23.3369 -0.308387
rtoes 11.4585 -0 0
lowerback -0.319411 -2.31423 -2.52648
upperback 2.26403 -3.03684 -0.26921
thorax 2.59352 -1.55943 1.0657
lowerneck -6.13765 -10.8165 -0.639807
upperneck -3.33226 -14.3203 7.91519
head 0.545496 -7.1371 2.24671
lclavicle -2.76914e-14 1.18419e-14 0
lhumerus -57.4653 -34.4542 119.78
lradius 66.2453 -0 0
lwrist 22.5315 0 0
lhand 8.40503 14.9677 -0.000477614
lfingers 7.12502 0 0
lthumb 37.8055 46.1933 -0.0074211
rclavicle -2.76914e-14 1.18419e-14 0
rhumerus -23.1608 20.8421 -78.6874
rradius 93.7849 -0 0
rwrist 3.36858 0 0
rhand 21.4122 -8.76527 1.40011
rfingers 7.12502 0 0
rthumb 49.078 -35.2695 1.57664
341
root 8.10339 16.0655 -20.3529 13.6952 31.1819 6.28444
lfemur -12.9438 23.0026 -13.5388
ltibia 48.8285 -0 0
lfoot 2.92285 28.9718 -0.245046
ltoes -36.6726 0 0
rfemur -55.3468 -15.5493 7.55
rtibia 64.2303 -0 0
rfoot 4.4816 -23.6236 -0.353758
rtoes 11.771 -0 0
lowerback -0.376647 -2.33079 -2.51494
upperback 2.27595 -3.05851 -0.217904
thorax 2.63695 -1.57188 1.11015
lowerneck -6.26016 -10.9146 -0.663648
upperneck -3.31029 -14.4499 7.98291
head 0.575996 -7.20173 2.26651
lclavicle -2.61544e-14 1.18135e-14 0
lhumerus -58.2391 -34.0586 120.426
lradius 66.9382 -0 0
lwrist 22.8116 0 0
lhand 8.37929 15.178 -0.00167091
lfingers 7.12502 0 0
lthumb 38.1701 46.7965 -0.00830533
rclavicle -2.61544e-14 1.18135e-14 0
rhumerus -23.8911 20.6941 -79.786
rradius 94.5332 -0 0
rwrist 3.54902 0 0
rhand 21.1671 -9.20899 1.60265
rfingers 7.12502 0 0
rthumb 49.1655 -36.0649 1.79613
342
root 8.03343 16.0881 -20.1966 13.6589 30.865 6.1791
lfemur -12.8492 22.9455 -13.394
ltibia 48.9552 -0 0
lfoot 3.16093 29.1066 -0.330694
ltoes -37.1393 0 0
rfemur -55.1787 -15.5034 7.48858
rtibia 64.1189 -0 0
rfoot 4.36797 -23.7462 -0.376492
rtoes 11.9601 -0 0
lowerback -0.457525 -2.32289 -2.47032
upperback 2.24846 -3.04756 -0.170006
thorax 2.65231 -1.56763 1.13282
lowerneck -6.27156 -10.8702 -0.679862
upperneck -3.25679 -14.3937 7.93452
head 0.590412 -7.17199 2.2539
lclavicle -2.46173e-14 1.17851e-14 0
lhumerus -58.1556 -33.906 120.378
lradius 66.8958 -0 0
lwrist 22.7779 0 0
lhand 8.2733 15.1834 -0.00282699
lfingers 7.12502 0 0
lthumb 38.0546 46.8061 -0.00829008
rclavicle -2.46173e-14 1.17851e-14 0
rhumerus -24.1281 20.5561 -79.9713
rradius 94.5896 -0 0
rwrist 3.72155 0 0
rhand 20.9993 -9.329 1.69821
rfingers 7.12502 0 0
rthumb 49.0144 -36.1729 1.89877
343
root 7.96347 16.1107 -20.0403 13.4674 30.2858 6.02937
lfemur -12.5713 22.6271 -13.1243
ltibia 48.3952 -0 0
lfoot 3.37283 29.12 -0.423594
ltoes -37.5353 0 0
rfemur -54.4692 -15.2309 7.18174
rtibia 63.427 -0 0
rfoot 4.29065 -23.7269 -0.380151
rtoes 12.042 -0 0
lowerback -0.556502 -2.2941 -2.39818
upperback 2.18816 -3.00881 -0.125856
thorax 2.64345 -1.54911 1.13644
lowerneck -6.18886 -10.7056 -0.688998
upperneck -3.17744 -14.1803 7.78845
head 0.590991 -7.06255 2.21395
lclavicle -2.30803e-14 1.17567e-14 0
lhumerus -57.3507 -33.9529 119.744
lradius 66.2304 -0 0
lwrist 22.4789 0 0
lhand 8.09944 15.0144 -0.00372758
lfingers 7.12502 0 0
lthumb 37.5318 46.3125 -0.00739504
rclavicle -2.30803e-14 1.17567e-14 0
rhumerus -23.9461 20.4276 -79.3904
rradius 94.0608 -0 0
rwrist 3.88448 0 0
rhand 20.8974 -9.17225 1.70311
rfingers 7.12502 0 0
rthumb 48.6593 -35.697 1.90326
344
root 7.89352 16.1333 -19.884 13.1519 29.4916 5.84476
lfemur -12.1516 22.0973 -12.7566
ltibia 47.2702 -0 0
lfoot 3.55797 29.0285 -0.52229
ltoes -37.8635 0 0
rfemur -53.3087 -14.7749 6.68415
rtibia 62.244 -0 0
rfoot 4.24092 -23.5873 -0.368302
rtoes 12.0342 -0 0
lowerback -0.667668 -2.24816 -2.30426
upperback 2.10216 -2.94731 -0.0854132
thorax 2.61455 -1.51891 1.12429
lowerneck -6.03097 -10.4441 -0.691791
upperneck -3.07786 -13.84 7.56455
head 0.580393 -6.8891 2.15214
lclavicle -2.15433e-14 1.17283e-14 0
lhumerus -55.9516 -34.164 118.576
lradius 65.038 -0 0
lwrist 21.9657 0 0
lhand 7.87015 14.704 -0.00420344
lfingers 7.12502 0 0
lthumb 36.6744 45.4031 -0.00566117
rclavicle -2.15433e-14 1.17283e-14 0
rhumerus -23.4272 20.2981 -78.1584
rradius 93.0191 -0 0
rwrist 4.03635 0 0
rhand 20.8444 -8.79434 1.63404
rfingers 7.12502 0 0
rthumb 48.1307 -34.7475 1.82673
345
root 7.82356 16.1558 -19.7277 12.7443 28.5296 5.63433
lfemur -11.6324 21.407 -12.318
ltibia 45.7027 -0 0
lfoot 3.71703 28.848 -0.62528
ltoes -38.1263 0 0
rfemur -51.7865 -14.1805 6.05274
rtibia 60.6555 -0 0
rfoot 4.20882 -23.3492 -0.344559
rtoes 11.9554 -0 0
lowerback -0.785236 -2.1889 -2.19431
upperback 1.99771 -2.86821 -0.0483579
thorax 2.56995 -1.47963 1.09988
lowerneck -5.81757 -10.1099 -0.689123
upperneck -2.96352 -13.4037 7.28314
head 0.561472 -6.66762 2.07409
lclavicle -2.00063e-14 1.16999e-14 0
lhumerus -54.0846 -34.5057 116.902
lradius 63.4095 -0 0
lwrist 21.2906 0 0
lhand 7.59774 14.2861 -0.0041186
lfingers 7.12502 0 0
lthumb 35.5559 44.1651 -0.00313959
rclavicle -2.00063e-14 1.16999e-14 0
rhumerus -22.6565 20.1519 -76.378
rradius 91.5211 -0 0
rwrist 4.1763 0 0
rhand 20.8207 -8.25466 1.50792
rfingers 7.12502 0 0
rthumb 47.4579 -33.4389 1.68582
346
root 7.7536 16.1784 -19.5714 12.276 27.4474 5.40668
lfemur -11.0547 20.6072 -11.8342
ltibia 43.8192 -0 0
lfoot 3.85195 28.5952 -0.731052
ltoes -38.3273 0 0
rfemur -49.9953 -13.4929 5.34305
rtibia 58.7513 -0 0
rfoot 4.18431 -23.0351 -0.312621
rtoes 11.8252 -0 0
lowerback -0.90393 -2.12011 -2.07384
upperback 1.88184 -2.7766 -0.0141729
thorax 2.51406 -1.43389 1.06681
lowerneck -5.56814 -9.72667 -0.681976
upperneck -2.83962 -12.902 6.96413
head 0.537102 -6.41391 1.98529
lclavicle -1.84692e-14 1.16715e-14 0
lhumerus -51.8805 -34.9413 114.738
lradius 61.4401 -0 0
lwrist 20.506 0 0
lhand 7.29419 13.7945 -0.00335722
lfingers 7.12502 0 0
lthumb 34.2511 42.6877 0.000116305
rclavicle -1.84692e-14 1.16715e-14 0
rhumerus -21.7193 19.9722 -74.1556
rradius 89.6233 -0 0
rwrist 4.30431 0 0
rhand 20.8069 -7.61252 1.34174
rfingers 7.12502 0 0
rthumb 46.6704 -31.8876 1.4976
347
root 7.68365 16.201 -19.4151 11.7768 26.2921 5.16974
lfemur -10.457 19.7483 -11.3298
ltibia 41.7507 -0 0
lfoot 3.96593 28.2882 -0.838102
ltoes -38.4719 0 0
rfemur -48.0334 -12.7559 4.60654
rtibia 56.6307 -0 0
rfoot 4.15812 -22.6684 -0.276294
rtoes 11.6633 -0 0
lowerback -1.01927 -2.04549 -1.94803
upperback 1.76113 -2.67747 0.0177961
thorax 2.45126 -1.38422 1.02863
lowerneck -5.30129 -9.31731 -0.6714
upperneck -2.71105 -12.3648 6.62645
head 0.510043 -6.14314 1.891
lclavicle -1.69322e-14 1.16431e-14 0
lhumerus -49.477 -35.4271 112.116
lradius 59.2362 -0 0
lwrist 19.6627 0 0
lhand 6.97104 13.2622 -0.00181243
lfingers 7.12502 0 0
lthumb 32.8356 41.0636 0.00405854
rclavicle -1.69322e-14 1.16431e-14 0
rhumerus -20.6986 19.7452 -71.6144
rradius 87.3958 -0 0
rwrist 4.42139 0 0
rhand 20.7854 -6.92415 1.15249
rfingers 7.12502 0 0
rthumb 45.7997 -30.209 1.28005
